<svg version="1.1" xmlns="http://www.w3.org/2000/svg"
     width="128" height="128" viewBox="0 0 32 32">
    <defs>
        <clipPath id="part4">
            <rect x="0" y="0" width="8" height="8"/>
        </clipPath>
    </defs>

    <linearGradient id="Gradient" x1="0" x2="0" y1="0" y2="1">
        <stop offset="0%" stop-color="white"/>
        <stop offset="100%" stop-color="black"/>
    </linearGradient>

    <rect x="-12.5" y="-12.5" rx="2" ry="2" width="25" height="25"
          fill="#5D3F51" transform="translate(16,16)"/>
    <rect x="-15" y="-15" rx="2" ry="2" width="30" height="30"
          fill="url(#Gradient)" opacity="0.1" transform="translate(16,16)"/>

    <line x1="-1" x2="-6" y1="-8" y2="8" stroke="white"
          stroke-width="3" stroke-linecap="round"
          transform="translate(16,16)"/>
    <line x1="1" x2="-4.5" y1="-8" y2="9" stroke="black"
          stroke-width="3" stroke-linecap="round"
          transform="translate(17,16) scale(-1,1)"/>
    <line x1="-2" x2="2" y1="3" y2="3" stroke="white"
          stroke-width="3" stroke-linecap="round"
          transform="translate(16,17)"/>
    <line x1="0" x2="-5" y1="-8" y2="8" stroke="black"
          stroke-width="3" stroke-linecap="round"
          transform="translate(16,16)"/>
    <line x1="-2" x2="2" y1="3" y2="3" stroke="black"
          stroke-width="3" stroke-linecap="round"
          transform="translate(16,16)"/>
    <line x1="-1" x2="-6" y1="-9" y2="9" stroke="white"
          stroke-width="3" stroke-linecap="round"
          transform="translate(14,16) scale(-1,1)"/>
</svg>